<svg xmlns="http://www.w3.org/2000/svg" viewBox="0 0 1200 760" role="img" aria-labelledby="title desc">
  <title id="title">DreamBase Service Visual</title>
  <desc id="desc">Health care, learning, and office wellness themed visual for the DreamBase home page.</desc>
  <defs>
    <linearGradient id="bg" x1="0" y1="0" x2="1" y2="1">
      <stop offset="0%" stop-color="#FFF2E8" />
      <stop offset="52%" stop-color="#FFE5D2" />
      <stop offset="100%" stop-color="#FFD3B4" />
    </linearGradient>
    <linearGradient id="accent" x1="0" y1="0" x2="0" y2="1">
      <stop offset="0%" stop-color="#FF8C00" />
      <stop offset="100%" stop-color="#FF6B35" />
    </linearGradient>
    <linearGradient id="cool" x1="0" y1="0" x2="1" y2="1">
      <stop offset="0%" stop-color="#F8FCFF" />
      <stop offset="100%" stop-color="#EAF4FF" />
    </linearGradient>
  </defs>

  <rect width="1200" height="760" fill="url(#bg)" />
  <rect x="0" y="560" width="1200" height="200" fill="#FFFFFF" opacity="0.35" />

  <circle cx="190" cy="130" r="95" fill="#FFFFFF" opacity="0.48" />
  <circle cx="1020" cy="140" r="78" fill="#FFFFFF" opacity="0.42" />
  <circle cx="1060" cy="620" r="122" fill="#FFFFFF" opacity="0.33" />

  <rect x="86" y="122" width="432" height="520" rx="34" fill="#FFFFFF" opacity="0.93" />
  <rect x="132" y="168" width="216" height="22" rx="11" fill="#FFD1B0" />
  <rect x="132" y="206" width="320" height="16" rx="8" fill="#FFE5D2" />
  <rect x="132" y="236" width="286" height="16" rx="8" fill="#FFE5D2" />

  <rect x="132" y="278" width="160" height="152" rx="22" fill="url(#accent)" opacity="0.92" />
  <rect x="312" y="278" width="160" height="152" rx="22" fill="#FFF2E7" />
  <rect x="334" y="314" width="118" height="18" rx="9" fill="#FFC59E" />
  <rect x="334" y="346" width="82" height="16" rx="8" fill="#FFDCC4" />
  <rect x="334" y="374" width="98" height="16" rx="8" fill="#FFDCC4" />

  <rect x="132" y="452" width="340" height="148" rx="20" fill="url(#cool)" stroke="#E0ECF9" />
  <circle cx="182" cy="526" r="26" fill="#FFB57F" />
  <rect x="221" y="506" width="214" height="14" rx="7" fill="#95AFCB" opacity="0.65" />
  <rect x="221" y="532" width="172" height="12" rx="6" fill="#C7D8EB" />
  <rect x="221" y="554" width="132" height="12" rx="6" fill="#C7D8EB" />

  <rect x="552" y="104" width="572" height="548" rx="42" fill="#FFFFFF" opacity="0.96" />
  <rect x="604" y="156" width="300" height="24" rx="12" fill="#FFC7A0" />
  <rect x="604" y="198" width="424" height="16" rx="8" fill="#FFE7D4" />
  <rect x="604" y="228" width="392" height="16" rx="8" fill="#FFE7D4" />

  <rect x="604" y="276" width="232" height="152" rx="24" fill="url(#cool)" stroke="#E0ECF9" />
  <circle cx="648" cy="336" r="26" fill="#88A7C8" />
  <rect x="684" y="316" width="124" height="12" rx="6" fill="#8FAED0" />
  <rect x="684" y="338" width="92" height="12" rx="6" fill="#C1D2E6" />
  <rect x="684" y="360" width="112" height="12" rx="6" fill="#C1D2E6" />

  <rect x="856" y="276" width="232" height="152" rx="24" fill="url(#accent)" opacity="0.9" />
  <circle cx="898" cy="336" r="24" fill="#FFE8D4" opacity="0.86" />
  <rect x="932" y="320" width="124" height="11" rx="5.5" fill="#FFE8D4" opacity="0.92" />
  <rect x="932" y="342" width="92" height="11" rx="5.5" fill="#FFF2E8" opacity="0.88" />
  <rect x="932" y="364" width="112" height="11" rx="5.5" fill="#FFF2E8" opacity="0.88" />

  <rect x="604" y="450" width="484" height="160" rx="24" fill="#FFF6F0" />
  <rect x="636" y="488" width="420" height="14" rx="7" fill="#FFC59D" />
  <rect x="636" y="516" width="360" height="12" rx="6" fill="#FFDCC6" />
  <rect x="636" y="538" width="306" height="12" rx="6" fill="#FFDCC6" />
  <rect x="636" y="560" width="206" height="12" rx="6" fill="#FFDCC6" />

  <g opacity="0.22" fill="none" stroke="#FF8C00" stroke-width="3">
    <path d="M68 88c82 10 148 48 192 112" />
    <path d="M970 676c56-38 102-90 134-154" />
  </g>
</svg>
