<svg xmlns="http://www.w3.org/2000/svg" viewBox="0 0 1200 700" role="img" aria-labelledby="title desc">
  <title id="title">Franchise Service</title>
  <desc id="desc">Illustration representing business growth and multi-location expansion.</desc>
  <defs>
    <linearGradient id="bg" x1="0" y1="0" x2="1" y2="1">
      <stop offset="0%" stop-color="#FFF1E8" />
      <stop offset="100%" stop-color="#FFDCC7" />
    </linearGradient>
  </defs>
  <rect width="1200" height="700" fill="url(#bg)" />
  <rect x="88" y="90" width="1024" height="520" rx="36" fill="#FFFFFF" opacity="0.95" />
  <rect x="158" y="160" width="412" height="384" rx="24" fill="#FFF5EE" />
  <rect x="206" y="214" width="310" height="20" rx="10" fill="#FFC5A0" />
  <rect x="206" y="248" width="260" height="14" rx="7" fill="#FFDCC8" />
  <rect x="206" y="276" width="220" height="14" rx="7" fill="#FFDCC8" />
  <rect x="206" y="330" width="110" height="170" rx="18" fill="#FF8C00" opacity="0.9" />
  <rect x="332" y="290" width="110" height="210" rx="18" fill="#FF9F3A" opacity="0.86" />
  <rect x="458" y="248" width="110" height="252" rx="18" fill="#FFB86B" opacity="0.82" />
  <rect x="626" y="164" width="418" height="176" rx="24" fill="#F4F8FF" stroke="#DDE8F6" />
  <circle cx="686" cy="236" r="30" fill="#8FACCF" />
  <rect x="732" y="220" width="274" height="13" rx="6.5" fill="#A8C0DE" />
  <rect x="732" y="244" width="214" height="11" rx="5.5" fill="#C7D8EC" />
  <rect x="626" y="366" width="418" height="176" rx="24" fill="#FFF4E8" />
  <rect x="674" y="420" width="322" height="14" rx="7" fill="#FFC59E" />
  <rect x="674" y="448" width="262" height="12" rx="6" fill="#FFDDC7" />
  <rect x="674" y="472" width="212" height="12" rx="6" fill="#FFDDC7" />
  <text x="150" y="648" font-family="Segoe UI, Arial, sans-serif" font-size="34" fill="#9A4A1E">Business Growth and Expansion</text>
</svg>
