<svg xmlns="http://www.w3.org/2000/svg" viewBox="0 0 1200 700" role="img" aria-labelledby="title desc">
  <title id="title">School and Course Service</title>
  <desc id="desc">Illustration representing structured training and practical education.</desc>
  <defs>
    <linearGradient id="bg" x1="0" y1="0" x2="1" y2="1">
      <stop offset="0%" stop-color="#FFF7EB" />
      <stop offset="100%" stop-color="#FFE7CF" />
    </linearGradient>
  </defs>
  <rect width="1200" height="700" fill="url(#bg)" />
  <rect x="110" y="92" width="980" height="516" rx="36" fill="#FFFFFF" opacity="0.95" />
  <rect x="180" y="170" width="390" height="360" rx="24" fill="#FFF2E7" />
  <rect x="220" y="218" width="310" height="18" rx="9" fill="#FFBF98" />
  <rect x="220" y="250" width="280" height="14" rx="7" fill="#FFD9C0" />
  <rect x="220" y="276" width="238" height="14" rx="7" fill="#FFD9C0" />
  <rect x="220" y="316" width="150" height="150" rx="20" fill="#FF8C00" opacity="0.88" />
  <rect x="390" y="316" width="140" height="150" rx="20" fill="#FFD4B7" />
  <rect x="640" y="172" width="390" height="210" rx="24" fill="#F3F8FF" stroke="#DFEAF7" />
  <rect x="686" y="224" width="296" height="16" rx="8" fill="#A6C0DB" />
  <rect x="686" y="256" width="248" height="12" rx="6" fill="#C7D8EA" />
  <rect x="686" y="280" width="210" height="12" rx="6" fill="#C7D8EA" />
  <rect x="640" y="400" width="390" height="130" rx="24" fill="#FFF3E9" />
  <circle cx="714" cy="466" r="30" fill="#FFB37B" />
  <rect x="758" y="448" width="238" height="13" rx="6.5" fill="#FFCCA9" />
  <rect x="758" y="472" width="174" height="11" rx="5.5" fill="#FFDECA" />
  <text x="152" y="644" font-family="Segoe UI, Arial, sans-serif" font-size="34" fill="#9A4A1E">Practical Courses and Training</text>
</svg>
