<svg xmlns="http://www.w3.org/2000/svg" viewBox="0 0 1200 700" role="img" aria-labelledby="title desc">
  <title id="title">Office Therapy Service</title>
  <desc id="desc">Illustration representing workplace wellness and office care.</desc>
  <defs>
    <linearGradient id="bg" x1="0" y1="0" x2="1" y2="1">
      <stop offset="0%" stop-color="#ECF7F4" />
      <stop offset="100%" stop-color="#D5EFE8" />
    </linearGradient>
  </defs>
  <rect width="1200" height="700" fill="url(#bg)" />
  <rect x="90" y="94" width="1020" height="512" rx="34" fill="#FFFFFF" opacity="0.95" />
  <rect x="160" y="170" width="470" height="360" rx="26" fill="#F2FAF8" />
  <rect x="208" y="218" width="366" height="18" rx="9" fill="#8DBEAF" />
  <rect x="208" y="250" width="320" height="14" rx="7" fill="#B7D9CF" />
  <rect x="208" y="278" width="274" height="14" rx="7" fill="#B7D9CF" />
  <rect x="208" y="326" width="180" height="170" rx="20" fill="#2F8F7B" opacity="0.9" />
  <rect x="408" y="326" width="166" height="170" rx="20" fill="#CFE7DF" />
  <rect x="678" y="178" width="362" height="150" rx="20" fill="#FFF5EB" />
  <circle cx="738" cy="250" r="28" fill="#FFB37B" />
  <rect x="782" y="236" width="220" height="12" rx="6" fill="#FFCDAE" />
  <rect x="782" y="258" width="172" height="10" rx="5" fill="#FFE0CD" />
  <rect x="678" y="350" width="362" height="180" rx="20" fill="#F2FAF8" />
  <rect x="726" y="406" width="266" height="14" rx="7" fill="#9BC4B8" />
  <rect x="726" y="434" width="220" height="12" rx="6" fill="#C3DED7" />
  <rect x="726" y="458" width="184" height="12" rx="6" fill="#C3DED7" />
  <text x="146" y="644" font-family="Segoe UI, Arial, sans-serif" font-size="34" fill="#2E7163">Office Wellness Support</text>
</svg>
